<?xml version="1.0" encoding="UTF-8" standalone="no"?>
<!DOCTYPE svg PUBLIC "-//W3C//DTD SVG 1.1//EN" "http://www.w3.org/Graphics/SVG/1.1/DTD/svg11.dtd">
<svg width="100%" height="100%" viewBox="0 0 1080 1080" version="1.1" xmlns="http://www.w3.org/2000/svg" xmlns:xlink="http://www.w3.org/1999/xlink" xml:space="preserve" xmlns:serif="http://www.serif.com/" style="fill-rule:evenodd;clip-rule:evenodd;stroke-linecap:round;stroke-linejoin:round;stroke-miterlimit:1.5;">
    <g transform="matrix(1,0,0,1,82.7386,-12)">
        <g>
            <g transform="matrix(1,0,0,1,636.014,103.203)">
                <path d="M-345.03,688.797L-303.461,712.797" style="fill:none;stroke:rgb(128,128,128);stroke-width:15px;"/>
            </g>
            <g transform="matrix(1,0,0,1,552.876,223.203)">
                <path d="M-386.599,304.797L-386.599,352.797" style="fill:none;stroke:rgb(128,128,128);stroke-width:15px;"/>
            </g>
            <g transform="matrix(1,0,0,1,677.584,223.203)">
                <path d="M-345.03,64.797L-386.599,88.797" style="fill:none;stroke:rgb(128,128,128);stroke-width:15px;"/>
            </g>
            <g transform="matrix(1,0,0,1,542.01,133.477)">
                <path d="M81.529,658.523L39.959,682.523" style="fill:none;stroke:rgb(128,128,128);stroke-width:15px;"/>
            </g>
            <g transform="matrix(1,0,0,1,261.891,247.203)">
                <path d="M486.355,280.797L486.355,328.797" style="fill:none;stroke:rgb(128,128,128);stroke-width:15px;"/>
            </g>
            <path d="M581.969,288L623.538,312" style="fill:none;stroke:rgb(128,128,128);stroke-width:15px;"/>
        </g>
        <g transform="matrix(1.2192,0,0,1.2192,-3325.54,-768)">
            <g transform="matrix(1,0,0,1,1738.87,-295.276)">
                <path d="M1125.15,1122.05L1227.44,1181.1L1227.44,1299.21L1125.15,1358.27L1022.87,1299.21L1022.87,1181.1L1125.15,1122.05Z" style="fill:white;stroke:black;stroke-width:6.84px;"/>
            </g>
            <g transform="matrix(0.833333,0,0,0.833333,2134.38,-23.622)">
                <path d="M875.572,1048.82L973.767,1105.51L973.767,1218.9L875.572,1275.59L777.377,1218.9L777.377,1105.51L875.572,1048.82Z" style="fill:rgb(255,204,255);stroke:black;stroke-width:4.1px;"/>
            </g>
            <g transform="matrix(0.833333,0,0,1,1723.14,295.276)">
                <g transform="matrix(1.2,0,0,1,-245.669,-11.811)">
                    <rect x="1287.4" y="614.173" width="118.11" height="94.488" style="fill:white;stroke:black;stroke-width:0.85px;"/>
                </g>
                <path d="M1429.13,614.173L1429.98,649.606L1417.32,637.795L1417.32,625.984L1405.51,614.173L1429.13,614.173Z" style="fill:rgb(102,255,102);stroke:black;stroke-width:0.93px;"/>
                <path d="M1405.51,614.173L1393.7,614.173L1393.7,637.795L1417.32,625.984" style="fill:rgb(255,102,102);stroke:black;stroke-width:0.93px;"/>
                <path d="M1393.7,637.795L1393.7,649.606L1429.98,649.606L1417.75,637.795L1417.32,625.984L1393.7,637.795Z" style="fill:rgb(51,153,255);stroke:black;stroke-width:0.93px;"/>
                <path d="M1311.02,649.606L1381.89,649.606" style="fill:none;stroke:black;stroke-width:0.93px;"/>
                <g transform="matrix(1,0,0,1,0,-11.811)">
                    <path d="M1311.02,649.606L1381.89,649.606" style="fill:none;stroke:black;stroke-width:0.93px;"/>
                </g>
                <path d="M1429.13,661.417L1311.02,661.417" style="fill:none;stroke:black;stroke-width:0.93px;"/>
                <path d="M1429.98,673.228L1311.02,673.228" style="fill:none;stroke:black;stroke-width:0.93px;"/>
                <path d="M1429.98,685.039L1311.02,685.039" style="fill:none;stroke:black;stroke-width:0.93px;"/>
                <rect x="1311.02" y="614.173" width="70.866" height="11.811" style="fill:rgb(217,217,217);stroke:black;stroke-width:1.11px;"/>
            </g>
        </g>
        <g transform="matrix(1.2192,0,0,1.2192,-3076.12,-1.03846e-11)">
            <g transform="matrix(1,0,0,1,1534.3,-649.606)">
                <path d="M1125.15,1122.05L1227.44,1181.1L1227.44,1299.21L1125.15,1358.27L1022.87,1299.21L1022.87,1181.1L1125.15,1122.05Z" style="fill:white;stroke:black;stroke-width:6.84px;"/>
            </g>
            <g transform="matrix(0.833333,0,0,0.833333,1929.8,-377.953)">
                <path d="M875.572,1048.82L973.767,1105.51L973.767,1218.9L875.572,1275.59L777.377,1218.9L777.377,1105.51L875.572,1048.82Z" style="fill:rgb(255,153,153);stroke:black;stroke-width:4.1px;"/>
            </g>
            <g transform="matrix(0.824976,0,0,0.817427,1768.33,-12.8644)">
                <g transform="matrix(0.5,0,0,0.249996,720.472,608.269)">
                    <rect x="590.551" y="259.843" width="47.244" height="94.488" style="fill:rgb(179,179,179);stroke:black;stroke-width:5.25px;"/>
                </g>
                <g transform="matrix(0.486468,0,0,0.249996,763.897,608.269)">
                    <rect x="590.551" y="259.843" width="47.244" height="94.488" style="fill:rgb(204,204,204);stroke:black;stroke-width:5.37px;"/>
                </g>
                <g transform="matrix(0.486468,0,0,0.25,799.33,608.268)">
                    <rect x="590.551" y="259.843" width="47.244" height="94.488" style="fill:rgb(230,230,230);stroke:black;stroke-width:5.37px;"/>
                </g>
                <g transform="matrix(0.486468,0,0,0.25,834.332,608.268)">
                    <rect x="590.551" y="259.843" width="47.244" height="94.488" style="fill:rgb(255,0,0);stroke:black;stroke-width:5.37px;"/>
                </g>
                <g transform="matrix(0.5,0,0,0.249996,720.472,643.702)">
                    <rect x="590.551" y="259.843" width="47.244" height="94.488" style="fill:rgb(179,179,179);stroke:black;stroke-width:5.25px;"/>
                </g>
                <g transform="matrix(0.486468,0,0,0.249996,763.897,643.702)">
                    <rect x="590.551" y="259.843" width="47.244" height="94.488" style="fill:rgb(204,204,204);stroke:black;stroke-width:5.37px;"/>
                </g>
                <g transform="matrix(0.486468,0,0,0.25,799.33,643.701)">
                    <rect x="590.551" y="259.843" width="47.244" height="94.488" style="fill:rgb(230,230,230);stroke:black;stroke-width:5.37px;"/>
                </g>
                <g transform="matrix(0.486468,0,0,0.25,834.332,643.701)">
                    <rect x="590.551" y="259.843" width="47.244" height="94.488" style="fill:rgb(0,153,0);stroke:black;stroke-width:5.37px;"/>
                </g>
                <g transform="matrix(0.5,0,0,0.249996,720.472,679.135)">
                    <rect x="590.551" y="259.843" width="47.244" height="94.488" style="fill:rgb(179,179,179);stroke:black;stroke-width:5.25px;"/>
                </g>
                <g transform="matrix(0.486468,0,0,0.249996,763.897,679.135)">
                    <rect x="590.551" y="259.843" width="47.244" height="94.488" style="fill:rgb(204,204,204);stroke:black;stroke-width:5.37px;"/>
                </g>
                <g transform="matrix(0.486468,0,0,0.25,799.33,679.134)">
                    <rect x="590.551" y="259.843" width="47.244" height="94.488" style="fill:rgb(230,230,230);stroke:black;stroke-width:5.37px;"/>
                </g>
                <g transform="matrix(0.486468,0,0,0.25,834.332,679.134)">
                    <rect x="590.551" y="259.843" width="47.244" height="94.488" style="fill:rgb(0,51,204);stroke:black;stroke-width:5.37px;"/>
                </g>
                <g transform="matrix(0.5,0,0,0.249996,720.472,714.569)">
                    <rect x="590.551" y="259.843" width="47.244" height="94.488" style="fill:rgb(179,179,179);stroke:black;stroke-width:5.25px;"/>
                </g>
                <g transform="matrix(0.486468,0,0,0.249996,763.897,714.569)">
                    <rect x="590.551" y="259.843" width="47.244" height="94.488" style="fill:rgb(204,204,204);stroke:black;stroke-width:5.37px;"/>
                </g>
                <g transform="matrix(0.486468,0,0,0.25,799.33,714.567)">
                    <rect x="590.551" y="259.843" width="47.244" height="94.488" style="fill:rgb(230,230,230);stroke:black;stroke-width:5.37px;"/>
                </g>
                <g transform="matrix(0.486468,0,0,0.25,834.332,714.567)">
                    <rect x="590.551" y="259.843" width="47.244" height="94.488" style="fill:rgb(255,255,0);stroke:black;stroke-width:5.37px;"/>
                </g>
            </g>
        </g>
        <g transform="matrix(1.2192,0,0,1.2192,-3658.09,240)">
            <g>
                <g transform="matrix(1,0,0,1,2250.3,-708.661)">
                    <path d="M1125.15,1122.05L1227.44,1181.1L1227.44,1299.21L1125.15,1358.27L1022.87,1299.21L1022.87,1181.1L1125.15,1122.05Z" style="fill:white;stroke:black;stroke-width:6.84px;"/>
                </g>
                <g transform="matrix(0.833333,0,0,0.833333,2645.81,-437.008)">
                    <path d="M875.572,1048.82L973.767,1105.51L973.767,1218.9L875.572,1275.59L777.377,1218.9L777.377,1105.51L875.572,1048.82Z" style="fill:rgb(255,204,153);stroke:black;stroke-width:4.1px;"/>
                </g>
                <g transform="matrix(1,0,0,1,2170.73,17.7165)">
                    <g transform="matrix(1,0,0,1,-307.087,29.5276)">
                        <path d="M1535.43,537.402L1570.87,501.969" style="fill:none;stroke:black;stroke-width:0.85px;"/>
                    </g>
                    <g transform="matrix(1,0,0,1,-307.087,29.5276)">
                        <path d="M1535.43,466.535L1570.87,501.969" style="fill:none;stroke:black;stroke-width:0.85px;"/>
                    </g>
                    <g transform="matrix(1,0,0,1,-307.087,29.5276)">
                        <path d="M1535.43,431.102L1570.87,501.969" style="fill:none;stroke:black;stroke-width:0.85px;"/>
                    </g>
                    <g transform="matrix(1,0,0,1,-307.087,29.5276)">
                        <path d="M1535.43,537.402L1570.87,466.535" style="fill:none;stroke:black;stroke-width:0.85px;"/>
                    </g>
                    <g transform="matrix(1,0,0,1,-307.087,29.5276)">
                        <path d="M1535.43,501.969L1570.87,466.535" style="fill:none;stroke:black;stroke-width:0.85px;"/>
                    </g>
                    <g transform="matrix(1,0,0,1,-307.087,29.5276)">
                        <path d="M1535.43,501.969L1570.87,501.969" style="fill:none;stroke:black;stroke-width:0.85px;"/>
                    </g>
                    <g transform="matrix(1,0,0,1,-307.087,29.5276)">
                        <path d="M1535.43,466.535L1570.87,466.535" style="fill:none;stroke:black;stroke-width:0.85px;"/>
                    </g>
                    <g transform="matrix(1,0,0,1,-307.087,29.5276)">
                        <path d="M1535.43,431.102L1570.87,466.535" style="fill:none;stroke:black;stroke-width:0.85px;"/>
                    </g>
                    <g transform="matrix(1,0,0,1,-307.087,29.5276)">
                        <path d="M1488.19,537.402L1535.43,466.535" style="fill:none;stroke:black;stroke-width:0.85px;"/>
                    </g>
                    <g transform="matrix(1,0,0,1,-307.087,29.5276)">
                        <path d="M1535.43,431.102L1488.19,537.402" style="fill:none;stroke:black;stroke-width:0.85px;"/>
                    </g>
                    <g transform="matrix(1,0,0,1,-307.087,29.5276)">
                        <path d="M1535.43,431.102L1488.19,501.969" style="fill:none;stroke:black;stroke-width:0.85px;"/>
                    </g>
                    <g transform="matrix(1,0,0,1,-307.087,29.5276)">
                        <path d="M1535.43,537.402L1488.19,466.535" style="fill:none;stroke:black;stroke-width:0.85px;"/>
                    </g>
                    <g transform="matrix(1,0,0,1,-307.087,29.5276)">
                        <path d="M1535.43,537.402L1488.19,431.102" style="fill:none;stroke:black;stroke-width:0.85px;"/>
                    </g>
                    <g transform="matrix(1,0,0,1,-307.087,29.5276)">
                        <path d="M1535.43,501.969L1488.19,431.102" style="fill:none;stroke:black;stroke-width:0.85px;"/>
                    </g>
                    <g transform="matrix(1,0,0,1,-307.087,29.5276)">
                        <path d="M1488.19,501.969L1535.43,537.402" style="fill:none;stroke:black;stroke-width:0.85px;"/>
                    </g>
                    <g transform="matrix(1,0,0,1,-307.087,29.5276)">
                        <path d="M1535.43,501.969L1488.19,466.535" style="fill:none;stroke:black;stroke-width:0.85px;"/>
                    </g>
                    <g transform="matrix(1,0,0,1,-307.087,29.5276)">
                        <path d="M1535.43,466.535L1488.19,431.102" style="fill:none;stroke:black;stroke-width:0.85px;"/>
                    </g>
                    <g transform="matrix(1,0,0,1,-307.087,29.5276)">
                        <path d="M1488.19,537.402L1535.43,501.969" style="fill:none;stroke:black;stroke-width:0.85px;"/>
                    </g>
                    <g transform="matrix(1,0,0,1,-307.087,29.5276)">
                        <path d="M1488.19,501.969L1535.43,466.535" style="fill:none;stroke:black;stroke-width:0.85px;"/>
                    </g>
                    <g transform="matrix(1,0,0,1,-307.087,29.5276)">
                        <path d="M1488.19,466.535L1535.43,431.102" style="fill:none;stroke:black;stroke-width:0.85px;"/>
                    </g>
                    <g transform="matrix(1,0,0,1,-307.087,29.5276)">
                        <path d="M1488.19,537.402L1535.43,537.402" style="fill:none;stroke:black;stroke-width:0.85px;"/>
                    </g>
                    <g transform="matrix(1,0,0,1,-307.087,29.5276)">
                        <path d="M1488.19,501.969L1535.43,501.969" style="fill:none;stroke:black;stroke-width:0.85px;"/>
                    </g>
                    <g transform="matrix(1,0,0,1,-307.087,29.5276)">
                        <path d="M1488.19,466.535L1535.43,466.535" style="fill:none;stroke:black;stroke-width:0.85px;"/>
                    </g>
                    <g transform="matrix(1,0,0,1,-307.087,29.5276)">
                        <path d="M1488.19,431.102L1535.43,431.102" style="fill:none;stroke:black;stroke-width:0.85px;"/>
                    </g>
                    <g transform="matrix(1,0,0,1,-307.087,29.5276)">
                        <path d="M1452.76,501.969L1488.19,431.102" style="fill:none;stroke:black;stroke-width:0.85px;"/>
                    </g>
                    <g transform="matrix(1,0,0,1,-307.087,29.5276)">
                        <path d="M1488.19,537.402L1452.76,466.535" style="fill:none;stroke:black;stroke-width:0.85px;"/>
                    </g>
                    <g transform="matrix(1,0,0,1,-307.087,29.5276)">
                        <path d="M1452.76,466.535L1488.19,501.969" style="fill:none;stroke:black;stroke-width:0.85px;"/>
                    </g>
                    <g transform="matrix(1,0,0,1,-307.087,29.5276)">
                        <path d="M1452.76,501.969L1488.19,466.535" style="fill:none;stroke:black;stroke-width:0.85px;"/>
                    </g>
                    <g transform="matrix(1,0,0,1,-307.087,29.5276)">
                        <path d="M1452.76,501.969L1488.19,537.402" style="fill:none;stroke:black;stroke-width:0.85px;"/>
                    </g>
                    <g transform="matrix(1,0,0,1,-307.087,29.5276)">
                        <path d="M1452.76,466.535L1488.19,431.102" style="fill:none;stroke:black;stroke-width:0.85px;"/>
                    </g>
                    <g transform="matrix(1,0,0,1,-307.087,29.5276)">
                        <path d="M1452.76,501.969L1488.19,501.969" style="fill:none;stroke:black;stroke-width:0.85px;"/>
                    </g>
                    <g transform="matrix(1,0,0,1,-307.087,29.5276)">
                        <path d="M1452.76,466.535L1488.19,466.535" style="fill:none;stroke:black;stroke-width:0.85px;"/>
                    </g>
                    <g transform="matrix(1.07735,0,0,1,-267.676,23.622)">
                        <ellipse cx="1311.87" cy="472.441" rx="10.963" ry="11.811" style="fill:rgb(230,230,230);stroke:black;stroke-width:1.64px;"/>
                    </g>
                    <g transform="matrix(1.07735,0,0,1,-267.676,59.0551)">
                        <ellipse cx="1311.87" cy="472.441" rx="10.963" ry="11.811" style="fill:rgb(230,230,230);stroke:black;stroke-width:1.64px;"/>
                    </g>
                    <g transform="matrix(1.07735,0,0,1,-149.566,23.622)">
                        <ellipse cx="1311.87" cy="472.441" rx="10.963" ry="11.811" style="fill:rgb(230,230,230);stroke:black;stroke-width:1.64px;"/>
                    </g>
                    <g transform="matrix(1.07735,0,0,1,-149.566,59.0551)">
                        <ellipse cx="1311.87" cy="472.441" rx="10.963" ry="11.811" style="fill:rgb(230,230,230);stroke:black;stroke-width:1.64px;"/>
                    </g>
                    <g transform="matrix(1.07735,0,0,1,-232.243,-11.811)">
                        <ellipse cx="1311.87" cy="472.441" rx="10.963" ry="11.811" style="fill:rgb(204,204,204);stroke:black;stroke-width:1.64px;"/>
                    </g>
                    <g transform="matrix(1.07735,0,0,1,-232.243,23.622)">
                        <ellipse cx="1311.87" cy="472.441" rx="10.963" ry="11.811" style="fill:rgb(204,204,204);stroke:black;stroke-width:1.64px;"/>
                    </g>
                    <g transform="matrix(1.07735,0,0,1,-232.243,59.0551)">
                        <ellipse cx="1311.87" cy="472.441" rx="10.963" ry="11.811" style="fill:rgb(204,204,204);stroke:black;stroke-width:1.64px;"/>
                    </g>
                    <g transform="matrix(1.07735,0,0,1,-232.243,94.4882)">
                        <ellipse cx="1311.87" cy="472.441" rx="10.963" ry="11.811" style="fill:rgb(204,204,204);stroke:black;stroke-width:1.64px;"/>
                    </g>
                    <g transform="matrix(1.07735,0,0,1,-184.999,-11.811)">
                        <ellipse cx="1311.87" cy="472.441" rx="10.963" ry="11.811" style="fill:rgb(191,191,191);stroke:black;stroke-width:1.64px;"/>
                    </g>
                    <g transform="matrix(1.07735,0,0,1,-184.999,23.622)">
                        <ellipse cx="1311.87" cy="472.441" rx="10.963" ry="11.811" style="fill:rgb(191,191,191);stroke:black;stroke-width:1.64px;"/>
                    </g>
                    <g transform="matrix(1.07735,0,0,1,-184.999,59.0551)">
                        <ellipse cx="1311.87" cy="472.441" rx="10.963" ry="11.811" style="fill:rgb(191,191,191);stroke:black;stroke-width:1.64px;"/>
                    </g>
                    <g transform="matrix(1.07735,0,0,1,-184.999,94.4882)">
                        <ellipse cx="1311.87" cy="472.441" rx="10.963" ry="11.811" style="fill:rgb(191,191,191);stroke:black;stroke-width:1.64px;"/>
                    </g>
                </g>
            </g>
        </g>
        <g transform="matrix(1.2192,0,0,1.2192,-3242.4,432)">
            <g transform="matrix(1,0,0,1,2148.02,-1003.94)">
                <path d="M1125.15,1122.05L1227.44,1181.1L1227.44,1299.21L1125.15,1358.27L1022.87,1299.21L1022.87,1181.1L1125.15,1122.05Z" style="fill:white;stroke:black;stroke-width:6.84px;"/>
            </g>
            <g transform="matrix(0.833333,0,0,0.833333,2543.52,-732.283)">
                <path d="M875.572,1048.82L973.767,1105.51L973.767,1218.9L875.572,1275.59L777.377,1218.9L777.377,1105.51L875.572,1048.82Z" style="fill:rgb(255,255,204);stroke:black;stroke-width:4.1px;"/>
            </g>
            <g transform="matrix(1,0,0,1,2233.8,-138.78)">
                <g transform="matrix(1,0,0,1,-82.6772,59.0551)">
                    <path d="M1062.99,318.898L1086.61,295.276L1110.24,342.52L1133.86,318.898L1157.48,277.559L1181.1,348.425" style="fill:none;stroke:rgb(204,51,0);stroke-width:6.84px;"/>
                </g>
                <g transform="matrix(1,0,0,1,-82.6772,57.5792)">
                    <path d="M1062.99,318.898L1086.61,280.511L1110.24,336.614L1133.86,301.181L1157.48,289.37L1181.1,336.614" style="fill:none;stroke:black;stroke-opacity:0.3;stroke-width:3.42px;"/>
                </g>
                <g transform="matrix(1,0,0,1,-82.6772,64.9606)">
                    <path d="M1062.99,312.992L1086.61,295.276L1110.24,324.803L1133.86,331.429L1157.48,277.559L1181.1,336.614" style="fill:none;stroke:black;stroke-opacity:0.3;stroke-width:3.42px;"/>
                </g>
                <g transform="matrix(1,0,0,1,-82.6772,81.776)">
                    <path d="M1062.99,307.988L1086.61,295.276L1110.24,331.61L1157.48,284.366L1181.1,331.61" style="fill:none;stroke:black;stroke-opacity:0.3;stroke-width:3.42px;"/>
                </g>
            </g>
        </g>
        <g transform="matrix(1.2192,0,0,1.2192,-2868.28,-120)">
            <g transform="matrix(1,0,0,1,1841.16,-826.772)">
                <path d="M1125.15,1122.05L1227.44,1181.1L1227.44,1299.21L1125.15,1358.27L1022.87,1299.21L1022.87,1181.1L1125.15,1122.05Z" style="fill:white;stroke:black;stroke-width:6.84px;"/>
            </g>
            <g transform="matrix(1,0,0,1,2139.54,-180.588)">
                <g transform="matrix(0.833333,0,0,0.833333,97.1282,-374.53)">
                    <path d="M875.572,1048.82L973.767,1105.51L973.767,1218.9L875.572,1275.59L777.377,1218.9L777.377,1105.51L875.572,1048.82Z" style="fill:rgb(204,255,153);stroke:black;stroke-width:4.1px;"/>
                </g>
                <g transform="matrix(0.412488,0,0,0.204353,530.027,487.774)">
                    <rect x="590.551" y="259.843" width="47.244" height="94.488" style="fill:rgb(179,179,179);stroke:black;stroke-width:5.25px;"/>
                </g>
                <g transform="matrix(0.401324,0,0,0.204353,565.851,487.774)">
                    <rect x="590.551" y="259.843" width="47.244" height="94.488" style="fill:rgb(204,204,204);stroke:black;stroke-width:5.37px;"/>
                </g>
                <g transform="matrix(0.401324,0,0,0.204357,595.082,487.773)">
                    <rect x="590.551" y="259.843" width="47.244" height="94.488" style="fill:rgb(230,230,230);stroke:black;stroke-width:5.37px;"/>
                </g>
                <g transform="matrix(0.401324,0,0,0.204357,623.959,487.773)">
                    <rect x="590.551" y="259.843" width="47.244" height="94.488" style="fill:white;stroke:black;stroke-width:5.37px;"/>
                </g>
                <g transform="matrix(0.412488,0,0,0.204353,530.027,516.738)">
                    <rect x="590.551" y="259.843" width="47.244" height="94.488" style="fill:rgb(179,179,179);stroke:black;stroke-width:5.25px;"/>
                </g>
                <g transform="matrix(0.401324,0,0,0.204353,565.851,516.738)">
                    <rect x="590.551" y="259.843" width="47.244" height="94.488" style="fill:rgb(204,204,204);stroke:black;stroke-width:5.37px;"/>
                </g>
                <g transform="matrix(0.401324,0,0,0.204357,595.082,516.737)">
                    <rect x="590.551" y="259.843" width="47.244" height="94.488" style="fill:rgb(230,230,230);stroke:black;stroke-width:5.37px;"/>
                </g>
                <g transform="matrix(0.401324,0,0,0.204357,623.959,516.737)">
                    <rect x="590.551" y="259.843" width="47.244" height="94.488" style="fill:white;stroke:black;stroke-width:5.37px;"/>
                </g>
                <g transform="matrix(0.412488,0,0,0.204353,530.027,545.702)">
                    <rect x="590.551" y="259.843" width="47.244" height="94.488" style="fill:rgb(179,179,179);stroke:black;stroke-width:5.25px;"/>
                </g>
                <g transform="matrix(0.401324,0,0,0.204353,565.851,545.702)">
                    <rect x="590.551" y="259.843" width="47.244" height="94.488" style="fill:rgb(204,204,204);stroke:black;stroke-width:5.37px;"/>
                </g>
                <g transform="matrix(0.401324,0,0,0.204357,595.082,545.701)">
                    <rect x="590.551" y="259.843" width="47.244" height="94.488" style="fill:rgb(230,230,230);stroke:black;stroke-width:5.37px;"/>
                </g>
                <g transform="matrix(0.401324,0,0,0.204357,623.959,545.701)">
                    <rect x="590.551" y="259.843" width="47.244" height="94.488" style="fill:white;stroke:black;stroke-width:5.37px;"/>
                </g>
                <g transform="matrix(0.412488,0,0,0.204353,530.027,574.666)">
                    <rect x="590.551" y="259.843" width="47.244" height="94.488" style="fill:rgb(179,179,179);stroke:black;stroke-width:5.25px;"/>
                </g>
                <g transform="matrix(0.401324,0,0,0.204353,565.851,574.666)">
                    <rect x="590.551" y="259.843" width="47.244" height="94.488" style="fill:rgb(204,204,204);stroke:black;stroke-width:5.37px;"/>
                </g>
                <g transform="matrix(0.401324,0,0,0.204357,595.082,574.665)">
                    <rect x="590.551" y="259.843" width="47.244" height="94.488" style="fill:rgb(230,230,230);stroke:black;stroke-width:5.37px;"/>
                </g>
                <g transform="matrix(0.401324,0,0,0.204357,623.959,574.665)">
                    <rect x="590.551" y="259.843" width="47.244" height="94.488" style="fill:white;stroke:black;stroke-width:5.37px;"/>
                </g>
            </g>
        </g>
        <g transform="matrix(1.2192,0,0,1.2192,-2785.14,-504)">
            <g transform="matrix(1,0,0,1,1534.3,-649.606)">
                <path d="M1125.15,1122.05L1227.44,1181.1L1227.44,1299.21L1125.15,1358.27L1022.87,1299.21L1022.87,1181.1L1125.15,1122.05Z" style="fill:white;stroke:black;stroke-width:6.84px;"/>
            </g>
            <g transform="matrix(0.833333,0,0,0.833333,1929.8,-377.953)">
                <path d="M875.572,1048.82L973.767,1105.51L973.767,1218.9L875.572,1275.59L777.377,1218.9L777.377,1105.51L875.572,1048.82Z" style="fill:rgb(118,214,255);stroke:black;stroke-width:4.1px;"/>
            </g>
            <g transform="matrix(1,0,0,1,1012.64,-237.424)">
                <path d="M1633.11,899.644L1668.3,855.702L1685.43,835.362L1694.48,801.695L1647.44,766.186L1618.81,773.277L1605.9,797.244L1633.11,829.502L1633.11,899.644Z" style="fill:rgb(0,249,0);stroke:black;stroke-width:3.42px;"/>
            </g>
        </g>
    </g>
</svg>
